<svg width="500" height="500" viewBox="0 0 500 500" fill="none" xmlns="http://www.w3.org/2000/svg">
    <path fill="#fff" d="M315 175L330.35 159.65C339.73 150.27 352.45 145 365.71 145H385L380.16 166.77C376.89 181.47 367.18 193.91 353.71 200.64L325 215" stroke="#000" stroke-width="10" stroke-miterlimit="10" stroke-linecap="round" stroke-linejoin="round"/>
    <path fill="#fff" d="M335 235L325 215V201.83C325 197.34 323.96 192.91 321.95 188.9L315 175V123.12C315 118.63 311.36 115 306.88 115H301.88C297.91 115 294.52 117.87 293.87 121.79L285 175H215L206.13 121.79C205.48 117.87 202.09 115 198.12 115H193.12C188.64 115 185 118.64 185 123.12V175L178.05 188.89C176.04 192.91 175 197.34 175 201.83V215L165 235L190 265L205 305V365L225 385H275L295 365V305L310 265L335 235Z" stroke="#000" stroke-width="10" stroke-miterlimit="10" stroke-linecap="round" stroke-linejoin="round"/>
    <path fill="#fff" d="M265 345V335L275 325" stroke="#000" stroke-width="10" stroke-miterlimit="10" stroke-linecap="round" stroke-linejoin="round"/>
    <path fill="#fff" d="M235 345V335L225 325" stroke="#000" stroke-width="10" stroke-miterlimit="10" stroke-linecap="round" stroke-linejoin="round"/>
    <path fill="#fff" d="M185 175L169.65 159.65C160.27 150.27 147.55 145 134.29 145H115L119.84 166.77C123.11 181.47 132.82 193.91 146.29 200.64L175 215" stroke="#000" stroke-width="10" stroke-miterlimit="10" stroke-linecap="round" stroke-linejoin="round"/>
</svg>